<mxfile host="app.diagrams.net" agent="Mozilla/5.0 (Windows NT 10.0; Win64; x64) AppleWebKit/537.36 (KHTML, like Gecko) Chrome/137.0.0.0 Safari/537.36 Edg/137.0.0.0" version="27.1.4">
  <diagram name="Page-1" id="ePhBxJt6IaGLYQ339Qli">
    <mxGraphModel dx="651" dy="369" grid="1" gridSize="10" guides="1" tooltips="1" connect="1" arrows="1" fold="1" page="1" pageScale="1" pageWidth="850" pageHeight="1100" math="0" shadow="0">
      <root>
        <mxCell id="0" />
        <mxCell id="1" parent="0" />
        <mxCell id="itCig65tvz4AVxYMpOXy-8" value="Aryal EMS" style="swimlane;whiteSpace=wrap;html=1;strokeColor=#E07A5F;fontColor=#393C56;fillColor=#F2CC8F;" vertex="1" parent="1">
          <mxGeometry x="340" y="150" width="230" height="240" as="geometry" />
        </mxCell>
        <mxCell id="itCig65tvz4AVxYMpOXy-11" value="&lt;font style=&quot;font-size: 8px;&quot;&gt;View event details&lt;/font&gt;" style="ellipse;whiteSpace=wrap;html=1;strokeColor=#E07A5F;fontColor=#393C56;fillColor=#F2CC8F;" vertex="1" parent="itCig65tvz4AVxYMpOXy-8">
          <mxGeometry x="80" y="30" width="80" height="30" as="geometry" />
        </mxCell>
        <mxCell id="itCig65tvz4AVxYMpOXy-21" value="&lt;font style=&quot;font-size: 8px;&quot;&gt;Register and Login&lt;/font&gt;" style="ellipse;whiteSpace=wrap;html=1;strokeColor=#E07A5F;fontColor=#393C56;fillColor=#F2CC8F;" vertex="1" parent="itCig65tvz4AVxYMpOXy-8">
          <mxGeometry x="80" y="70" width="80" height="30" as="geometry" />
        </mxCell>
        <mxCell id="itCig65tvz4AVxYMpOXy-22" value="&lt;font style=&quot;font-size: 8px;&quot;&gt;Ticket Selection&lt;/font&gt;" style="ellipse;whiteSpace=wrap;html=1;strokeColor=#E07A5F;fontColor=#393C56;fillColor=#F2CC8F;" vertex="1" parent="itCig65tvz4AVxYMpOXy-8">
          <mxGeometry x="80" y="110" width="80" height="30" as="geometry" />
        </mxCell>
        <mxCell id="itCig65tvz4AVxYMpOXy-23" value="&lt;font style=&quot;font-size: 9px;&quot;&gt;Make Payment&lt;/font&gt;" style="ellipse;whiteSpace=wrap;html=1;strokeColor=#E07A5F;fontColor=#393C56;fillColor=#F2CC8F;" vertex="1" parent="itCig65tvz4AVxYMpOXy-8">
          <mxGeometry x="80" y="150" width="80" height="30" as="geometry" />
        </mxCell>
        <mxCell id="itCig65tvz4AVxYMpOXy-24" value="&lt;font style=&quot;font-size: 8px;&quot;&gt;Make inquiry&lt;/font&gt;" style="ellipse;whiteSpace=wrap;html=1;strokeColor=#E07A5F;fontColor=#393C56;fillColor=#F2CC8F;" vertex="1" parent="itCig65tvz4AVxYMpOXy-8">
          <mxGeometry x="80" y="190" width="80" height="30" as="geometry" />
        </mxCell>
        <mxCell id="itCig65tvz4AVxYMpOXy-9" value="Customer" style="shape=umlActor;verticalLabelPosition=bottom;verticalAlign=top;html=1;outlineConnect=0;strokeColor=#E07A5F;fontColor=#393C56;fillColor=#F2CC8F;" vertex="1" parent="1">
          <mxGeometry x="250" y="230" width="30" height="60" as="geometry" />
        </mxCell>
        <mxCell id="itCig65tvz4AVxYMpOXy-10" value="Admin" style="shape=umlActor;verticalLabelPosition=bottom;verticalAlign=top;html=1;outlineConnect=0;strokeColor=#E07A5F;fontColor=#393C56;fillColor=#F2CC8F;" vertex="1" parent="1">
          <mxGeometry x="640" y="230" width="30" height="60" as="geometry" />
        </mxCell>
        <mxCell id="itCig65tvz4AVxYMpOXy-28" value="" style="endArrow=none;html=1;rounded=0;strokeColor=#E07A5F;fontColor=#393C56;fillColor=#F2CC8F;exitX=1;exitY=0.3333333333333333;exitDx=0;exitDy=0;exitPerimeter=0;entryX=0;entryY=0.5;entryDx=0;entryDy=0;" edge="1" parent="1" source="itCig65tvz4AVxYMpOXy-9" target="itCig65tvz4AVxYMpOXy-11">
          <mxGeometry width="50" height="50" relative="1" as="geometry">
            <mxPoint x="420" y="340" as="sourcePoint" />
            <mxPoint x="470" y="290" as="targetPoint" />
          </mxGeometry>
        </mxCell>
        <mxCell id="itCig65tvz4AVxYMpOXy-29" value="" style="endArrow=none;html=1;rounded=0;strokeColor=#E07A5F;fontColor=#393C56;fillColor=#F2CC8F;exitX=1;exitY=0.3333333333333333;exitDx=0;exitDy=0;exitPerimeter=0;" edge="1" parent="1" source="itCig65tvz4AVxYMpOXy-9">
          <mxGeometry width="50" height="50" relative="1" as="geometry">
            <mxPoint x="270" y="315" as="sourcePoint" />
            <mxPoint x="420" y="239" as="targetPoint" />
          </mxGeometry>
        </mxCell>
        <mxCell id="itCig65tvz4AVxYMpOXy-30" value="" style="endArrow=none;html=1;rounded=0;strokeColor=#E07A5F;fontColor=#393C56;fillColor=#F2CC8F;" edge="1" parent="1" target="itCig65tvz4AVxYMpOXy-22">
          <mxGeometry width="50" height="50" relative="1" as="geometry">
            <mxPoint x="280" y="250" as="sourcePoint" />
            <mxPoint x="489" y="300" as="targetPoint" />
          </mxGeometry>
        </mxCell>
        <mxCell id="itCig65tvz4AVxYMpOXy-31" value="" style="endArrow=none;html=1;rounded=0;strokeColor=#E07A5F;fontColor=#393C56;fillColor=#F2CC8F;entryX=0.027;entryY=0.319;entryDx=0;entryDy=0;entryPerimeter=0;" edge="1" parent="1" target="itCig65tvz4AVxYMpOXy-23">
          <mxGeometry width="50" height="50" relative="1" as="geometry">
            <mxPoint x="280" y="250" as="sourcePoint" />
            <mxPoint x="462" y="290" as="targetPoint" />
          </mxGeometry>
        </mxCell>
        <mxCell id="itCig65tvz4AVxYMpOXy-32" value="" style="endArrow=none;html=1;rounded=0;strokeColor=#E07A5F;fontColor=#393C56;fillColor=#F2CC8F;entryX=0;entryY=0.5;entryDx=0;entryDy=0;exitX=1;exitY=0.3333333333333333;exitDx=0;exitDy=0;exitPerimeter=0;" edge="1" parent="1" source="itCig65tvz4AVxYMpOXy-9" target="itCig65tvz4AVxYMpOXy-24">
          <mxGeometry width="50" height="50" relative="1" as="geometry">
            <mxPoint x="400" y="310" as="sourcePoint" />
            <mxPoint x="542" y="370" as="targetPoint" />
          </mxGeometry>
        </mxCell>
        <mxCell id="itCig65tvz4AVxYMpOXy-33" value="" style="endArrow=none;html=1;rounded=0;strokeColor=#E07A5F;fontColor=#393C56;fillColor=#F2CC8F;entryX=0;entryY=0.3333333333333333;entryDx=0;entryDy=0;entryPerimeter=0;exitX=1;exitY=0.5;exitDx=0;exitDy=0;" edge="1" parent="1" source="itCig65tvz4AVxYMpOXy-11" target="itCig65tvz4AVxYMpOXy-10">
          <mxGeometry width="50" height="50" relative="1" as="geometry">
            <mxPoint x="420" y="340" as="sourcePoint" />
            <mxPoint x="470" y="290" as="targetPoint" />
          </mxGeometry>
        </mxCell>
        <mxCell id="itCig65tvz4AVxYMpOXy-34" value="" style="endArrow=none;html=1;rounded=0;strokeColor=#E07A5F;fontColor=#393C56;fillColor=#F2CC8F;entryX=0;entryY=0.3333333333333333;entryDx=0;entryDy=0;entryPerimeter=0;exitX=1;exitY=0.5;exitDx=0;exitDy=0;" edge="1" parent="1" source="itCig65tvz4AVxYMpOXy-21" target="itCig65tvz4AVxYMpOXy-10">
          <mxGeometry width="50" height="50" relative="1" as="geometry">
            <mxPoint x="310" y="280" as="sourcePoint" />
            <mxPoint x="450" y="335" as="targetPoint" />
          </mxGeometry>
        </mxCell>
        <mxCell id="itCig65tvz4AVxYMpOXy-35" value="" style="endArrow=none;html=1;rounded=0;strokeColor=#E07A5F;fontColor=#393C56;fillColor=#F2CC8F;entryX=0;entryY=0.3333333333333333;entryDx=0;entryDy=0;entryPerimeter=0;exitX=1;exitY=0.5;exitDx=0;exitDy=0;" edge="1" parent="1" source="itCig65tvz4AVxYMpOXy-22" target="itCig65tvz4AVxYMpOXy-10">
          <mxGeometry width="50" height="50" relative="1" as="geometry">
            <mxPoint x="510" y="240" as="sourcePoint" />
            <mxPoint x="650" y="255" as="targetPoint" />
          </mxGeometry>
        </mxCell>
        <mxCell id="itCig65tvz4AVxYMpOXy-36" value="" style="endArrow=none;html=1;rounded=0;strokeColor=#E07A5F;fontColor=#393C56;fillColor=#F2CC8F;exitX=1;exitY=0.5;exitDx=0;exitDy=0;" edge="1" parent="1" source="itCig65tvz4AVxYMpOXy-23">
          <mxGeometry width="50" height="50" relative="1" as="geometry">
            <mxPoint x="530" y="305" as="sourcePoint" />
            <mxPoint x="640" y="250" as="targetPoint" />
          </mxGeometry>
        </mxCell>
        <mxCell id="itCig65tvz4AVxYMpOXy-37" value="" style="endArrow=none;html=1;rounded=0;strokeColor=#E07A5F;fontColor=#393C56;fillColor=#F2CC8F;exitX=1;exitY=0.5;exitDx=0;exitDy=0;" edge="1" parent="1" source="itCig65tvz4AVxYMpOXy-24">
          <mxGeometry width="50" height="50" relative="1" as="geometry">
            <mxPoint x="620" y="375" as="sourcePoint" />
            <mxPoint x="640" y="250" as="targetPoint" />
          </mxGeometry>
        </mxCell>
      </root>
    </mxGraphModel>
  </diagram>
</mxfile>
